<?xml version="1.0" encoding="utf-8" standalone="no"?>
<!DOCTYPE svg PUBLIC "-//W3C//DTD SVG 1.1//EN"
  "http://www.w3.org/Graphics/SVG/1.1/DTD/svg11.dtd">
<svg xmlns:xlink="http://www.w3.org/1999/xlink" width="255.44pt" height="255.44pt" viewBox="0 0 255.44 255.44" xmlns="http://www.w3.org/2000/svg" version="1.1">
 <metadata>
  <rdf:RDF xmlns:dc="http://purl.org/dc/elements/1.1/" xmlns:cc="http://creativecommons.org/ns#" xmlns:rdf="http://www.w3.org/1999/02/22-rdf-syntax-ns#">
   <cc:Work>
    <dc:type rdf:resource="http://purl.org/dc/dcmitype/StillImage"/>
    <dc:date>2023-12-01T03:25:40.741764</dc:date>
    <dc:format>image/svg+xml</dc:format>
    <dc:creator>
     <cc:Agent>
      <dc:title>Matplotlib v3.8.1, https://matplotlib.org/</dc:title>
     </cc:Agent>
    </dc:creator>
   </cc:Work>
  </rdf:RDF>
 </metadata>
 <defs>
  <style type="text/css">*{stroke-linejoin: round; stroke-linecap: butt}</style>
 </defs>
 <g id="figure_1">
  <g id="patch_1">
   <path d="M 0 255.44 
L 255.44 255.44 
L 255.44 0 
L 0 0 
L 0 255.44 
z
" style="fill: none"/>
  </g>
  <g id="axes_1">
   <g id="patch_2">
    <path d="M 14.4 241.04 
L 48.396 241.04 
L 48.396 161.716 
L 14.4 161.716 
z
" clip-path="url(#p848c8138fe)" style="fill: #ffffff; stroke: #ffffff; stroke-linejoin: miter"/>
   </g>
   <g id="patch_3">
    <path d="M 31.398 202.5112 
C 31.698528 202.5112 31.986788 202.391799 32.199293 202.179293 
C 32.411799 201.966788 32.5312 201.678528 32.5312 201.378 
C 32.5312 201.077472 32.411799 200.789212 32.199293 200.576707 
C 31.986788 200.364201 31.698528 200.2448 31.398 200.2448 
C 31.097472 200.2448 30.809212 200.364201 30.596707 200.576707 
C 30.384201 200.789212 30.2648 201.077472 30.2648 201.378 
C 30.2648 201.678528 30.384201 201.966788 30.596707 202.179293 
C 30.809212 202.391799 31.097472 202.5112 31.398 202.5112 
z
" clip-path="url(#p848c8138fe)" style="stroke: #000000; stroke-linejoin: miter"/>
   </g>
   <g id="patch_4">
    <path d="M 48.396 241.04 
L 127.72 241.04 
L 127.72 105.056 
L 48.396 105.056 
z
" clip-path="url(#p848c8138fe)" style="fill: #ffffff; stroke: #ffffff; stroke-linejoin: miter"/>
   </g>
   <g id="patch_5">
    <path d="M 88.058 174.1812 
C 88.358528 174.1812 88.646788 174.061799 88.859293 173.849293 
C 89.071799 173.636788 89.1912 173.348528 89.1912 173.048 
C 89.1912 172.747472 89.071799 172.459212 88.859293 172.246707 
C 88.646788 172.034201 88.358528 171.9148 88.058 171.9148 
C 87.757472 171.9148 87.469212 172.034201 87.256707 172.246707 
C 87.044201 172.459212 86.9248 172.747472 86.9248 173.048 
C 86.9248 173.348528 87.044201 173.636788 87.256707 173.849293 
C 87.469212 174.061799 87.757472 174.1812 88.058 174.1812 
z
" clip-path="url(#p848c8138fe)" style="stroke: #000000; stroke-linejoin: miter"/>
   </g>
   <g id="patch_6">
    <path d="M 127.72 241.04 
L 207.044 241.04 
L 207.044 184.38 
L 127.72 184.38 
z
" clip-path="url(#p848c8138fe)" style="fill: #ffffff; stroke: #ffffff; stroke-linejoin: miter"/>
   </g>
   <g id="patch_7">
    <path d="M 167.382 213.8432 
C 167.682528 213.8432 167.970788 213.723799 168.183293 213.511293 
C 168.395799 213.298788 168.5152 213.010528 168.5152 212.71 
C 168.5152 212.409472 168.395799 212.121212 168.183293 211.908707 
C 167.970788 211.696201 167.682528 211.5768 167.382 211.5768 
C 167.081472 211.5768 166.793212 211.696201 166.580707 211.908707 
C 166.368201 212.121212 166.2488 212.409472 166.2488 212.71 
C 166.2488 213.010528 166.368201 213.298788 166.580707 213.511293 
C 166.793212 213.723799 167.081472 213.8432 167.382 213.8432 
z
" clip-path="url(#p848c8138fe)" style="stroke: #000000; stroke-linejoin: miter"/>
   </g>
   <g id="patch_8">
    <path d="M 127.72 184.38 
L 195.712 184.38 
L 195.712 150.384 
L 127.72 150.384 
z
" clip-path="url(#p848c8138fe)" style="fill: #ffffff; stroke: #ffffff; stroke-linejoin: miter"/>
   </g>
   <g id="patch_9">
    <path d="M 161.716 168.5152 
C 162.016528 168.5152 162.304788 168.395799 162.517293 168.183293 
C 162.729799 167.970788 162.8492 167.682528 162.8492 167.382 
C 162.8492 167.081472 162.729799 166.793212 162.517293 166.580707 
C 162.304788 166.368201 162.016528 166.2488 161.716 166.2488 
C 161.415472 166.2488 161.127212 166.368201 160.914707 166.580707 
C 160.702201 166.793212 160.5828 167.081472 160.5828 167.382 
C 160.5828 167.682528 160.702201 167.970788 160.914707 168.183293 
C 161.127212 168.395799 161.415472 168.5152 161.716 168.5152 
z
" clip-path="url(#p848c8138fe)" style="stroke: #000000; stroke-linejoin: miter"/>
   </g>
   <g id="patch_10">
    <path d="M 207.044 241.04 
L 241.04 241.04 
L 241.04 161.716 
L 207.044 161.716 
z
" clip-path="url(#p848c8138fe)" style="fill: #ffffff; stroke: #ffffff; stroke-linejoin: miter"/>
   </g>
   <g id="patch_11">
    <path d="M 224.042 202.5112 
C 224.342528 202.5112 224.630788 202.391799 224.843293 202.179293 
C 225.055799 201.966788 225.1752 201.678528 225.1752 201.378 
C 225.1752 201.077472 225.055799 200.789212 224.843293 200.576707 
C 224.630788 200.364201 224.342528 200.2448 224.042 200.2448 
C 223.741472 200.2448 223.453212 200.364201 223.240707 200.576707 
C 223.028201 200.789212 222.9088 201.077472 222.9088 201.378 
C 222.9088 201.678528 223.028201 201.966788 223.240707 202.179293 
C 223.453212 202.391799 223.741472 202.5112 224.042 202.5112 
z
" clip-path="url(#p848c8138fe)" style="stroke: #000000; stroke-linejoin: miter"/>
   </g>
   <g id="patch_12">
    <path d="M 195.712 161.716 
L 241.04 161.716 
L 241.04 116.388 
L 195.712 116.388 
z
" clip-path="url(#p848c8138fe)" style="fill: #ffffff; stroke: #ffffff; stroke-linejoin: miter"/>
   </g>
   <g id="patch_13">
    <path d="M 218.376 140.1852 
C 218.676528 140.1852 218.964788 140.065799 219.177293 139.853293 
C 219.389799 139.640788 219.5092 139.352528 219.5092 139.052 
C 219.5092 138.751472 219.389799 138.463212 219.177293 138.250707 
C 218.964788 138.038201 218.676528 137.9188 218.376 137.9188 
C 218.075472 137.9188 217.787212 138.038201 217.574707 138.250707 
C 217.362201 138.463212 217.2428 138.751472 217.2428 139.052 
C 217.2428 139.352528 217.362201 139.640788 217.574707 139.853293 
C 217.787212 140.065799 218.075472 140.1852 218.376 140.1852 
z
" clip-path="url(#p848c8138fe)" style="stroke: #000000; stroke-linejoin: miter"/>
   </g>
   <g id="patch_14">
    <path d="M 14.4 105.056 
L 139.052 105.056 
L 139.052 82.392 
L 14.4 82.392 
z
" clip-path="url(#p848c8138fe)" style="fill: #ffffff; stroke: #ffffff; stroke-linejoin: miter"/>
   </g>
   <g id="patch_15">
    <path d="M 76.726 94.8572 
C 77.026528 94.8572 77.314788 94.737799 77.527293 94.525293 
C 77.739799 94.312788 77.8592 94.024528 77.8592 93.724 
C 77.8592 93.423472 77.739799 93.135212 77.527293 92.922707 
C 77.314788 92.710201 77.026528 92.5908 76.726 92.5908 
C 76.425472 92.5908 76.137212 92.710201 75.924707 92.922707 
C 75.712201 93.135212 75.5928 93.423472 75.5928 93.724 
C 75.5928 94.024528 75.712201 94.312788 75.924707 94.525293 
C 76.137212 94.737799 76.425472 94.8572 76.726 94.8572 
z
" clip-path="url(#p848c8138fe)" style="stroke: #000000; stroke-linejoin: miter"/>
   </g>
   <g id="patch_16">
    <path d="M 127.72 150.384 
L 195.712 150.384 
L 195.712 127.72 
L 127.72 127.72 
z
" clip-path="url(#p848c8138fe)" style="fill: #ffffff; stroke: #ffffff; stroke-linejoin: miter"/>
   </g>
   <g id="patch_17">
    <path d="M 161.716 140.1852 
C 162.016528 140.1852 162.304788 140.065799 162.517293 139.853293 
C 162.729799 139.640788 162.8492 139.352528 162.8492 139.052 
C 162.8492 138.751472 162.729799 138.463212 162.517293 138.250707 
C 162.304788 138.038201 162.016528 137.9188 161.716 137.9188 
C 161.415472 137.9188 161.127212 138.038201 160.914707 138.250707 
C 160.702201 138.463212 160.5828 138.751472 160.5828 139.052 
C 160.5828 139.352528 160.702201 139.640788 160.914707 139.853293 
C 161.127212 140.065799 161.415472 140.1852 161.716 140.1852 
z
" clip-path="url(#p848c8138fe)" style="stroke: #000000; stroke-linejoin: miter"/>
   </g>
   <g id="patch_18">
    <path d="M 139.052 127.72 
L 184.38 127.72 
L 184.38 82.392 
L 139.052 82.392 
z
" clip-path="url(#p848c8138fe)" style="fill: #ffffff; stroke: #ffffff; stroke-linejoin: miter"/>
   </g>
   <g id="patch_19">
    <path d="M 161.716 106.1892 
C 162.016528 106.1892 162.304788 106.069799 162.517293 105.857293 
C 162.729799 105.644788 162.8492 105.356528 162.8492 105.056 
C 162.8492 104.755472 162.729799 104.467212 162.517293 104.254707 
C 162.304788 104.042201 162.016528 103.9228 161.716 103.9228 
C 161.415472 103.9228 161.127212 104.042201 160.914707 104.254707 
C 160.702201 104.467212 160.5828 104.755472 160.5828 105.056 
C 160.5828 105.356528 160.702201 105.644788 160.914707 105.857293 
C 161.127212 106.069799 161.415472 106.1892 161.716 106.1892 
z
" clip-path="url(#p848c8138fe)" style="stroke: #000000; stroke-linejoin: miter"/>
   </g>
   <g id="patch_20">
    <path d="M 14.4 82.392 
L 105.056 82.392 
L 105.056 14.4 
L 14.4 14.4 
z
" clip-path="url(#p848c8138fe)" style="fill: #ffffff; stroke: #ffffff; stroke-linejoin: miter"/>
   </g>
   <g id="patch_21">
    <path d="M 59.728 49.5292 
C 60.028528 49.5292 60.316788 49.409799 60.529293 49.197293 
C 60.741799 48.984788 60.8612 48.696528 60.8612 48.396 
C 60.8612 48.095472 60.741799 47.807212 60.529293 47.594707 
C 60.316788 47.382201 60.028528 47.2628 59.728 47.2628 
C 59.427472 47.2628 59.139212 47.382201 58.926707 47.594707 
C 58.714201 47.807212 58.5948 48.095472 58.5948 48.396 
C 58.5948 48.696528 58.714201 48.984788 58.926707 49.197293 
C 59.139212 49.409799 59.427472 49.5292 59.728 49.5292 
z
" clip-path="url(#p848c8138fe)" style="stroke: #000000; stroke-linejoin: miter"/>
   </g>
   <g id="patch_22">
    <path d="M 14.4 161.716 
L 48.396 161.716 
L 48.396 105.056 
L 14.4 105.056 
z
" clip-path="url(#p848c8138fe)" style="fill: #ffffff; stroke: #ffffff; stroke-linejoin: miter"/>
   </g>
   <g id="patch_23">
    <path d="M 31.398 134.5192 
C 31.698528 134.5192 31.986788 134.399799 32.199293 134.187293 
C 32.411799 133.974788 32.5312 133.686528 32.5312 133.386 
C 32.5312 133.085472 32.411799 132.797212 32.199293 132.584707 
C 31.986788 132.372201 31.698528 132.2528 31.398 132.2528 
C 31.097472 132.2528 30.809212 132.372201 30.596707 132.584707 
C 30.384201 132.797212 30.2648 133.085472 30.2648 133.386 
C 30.2648 133.686528 30.384201 133.974788 30.596707 134.187293 
C 30.809212 134.399799 31.097472 134.5192 31.398 134.5192 
z
" clip-path="url(#p848c8138fe)" style="stroke: #000000; stroke-linejoin: miter"/>
   </g>
   <g id="patch_24">
    <path d="M 105.056 82.392 
L 207.044 82.392 
L 207.044 59.728 
L 105.056 59.728 
z
" clip-path="url(#p848c8138fe)" style="fill: #ffffff; stroke: #ffffff; stroke-linejoin: miter"/>
   </g>
   <g id="patch_25">
    <path d="M 156.05 72.1932 
C 156.350528 72.1932 156.638788 72.073799 156.851293 71.861293 
C 157.063799 71.648788 157.1832 71.360528 157.1832 71.06 
C 157.1832 70.759472 157.063799 70.471212 156.851293 70.258707 
C 156.638788 70.046201 156.350528 69.9268 156.05 69.9268 
C 155.749472 69.9268 155.461212 70.046201 155.248707 70.258707 
C 155.036201 70.471212 154.9168 70.759472 154.9168 71.06 
C 154.9168 71.360528 155.036201 71.648788 155.248707 71.861293 
C 155.461212 72.073799 155.749472 72.1932 156.05 72.1932 
z
" clip-path="url(#p848c8138fe)" style="stroke: #000000; stroke-linejoin: miter"/>
   </g>
   <g id="patch_26">
    <path d="M 105.056 59.728 
L 184.38 59.728 
L 184.38 25.732 
L 105.056 25.732 
z
" clip-path="url(#p848c8138fe)" style="fill: #ffffff; stroke: #ffffff; stroke-linejoin: miter"/>
   </g>
   <g id="patch_27">
    <path d="M 144.718 43.8632 
C 145.018528 43.8632 145.306788 43.743799 145.519293 43.531293 
C 145.731799 43.318788 145.8512 43.030528 145.8512 42.73 
C 145.8512 42.429472 145.731799 42.141212 145.519293 41.928707 
C 145.306788 41.716201 145.018528 41.5968 144.718 41.5968 
C 144.417472 41.5968 144.129212 41.716201 143.916707 41.928707 
C 143.704201 42.141212 143.5848 42.429472 143.5848 42.73 
C 143.5848 43.030528 143.704201 43.318788 143.916707 43.531293 
C 144.129212 43.743799 144.417472 43.8632 144.718 43.8632 
z
" clip-path="url(#p848c8138fe)" style="stroke: #000000; stroke-linejoin: miter"/>
   </g>
   <g id="patch_28">
    <path d="M 207.044 116.388 
L 241.04 116.388 
L 241.04 48.396 
L 207.044 48.396 
z
" clip-path="url(#p848c8138fe)" style="fill: #ffffff; stroke: #ffffff; stroke-linejoin: miter"/>
   </g>
   <g id="patch_29">
    <path d="M 224.042 83.5252 
C 224.342528 83.5252 224.630788 83.405799 224.843293 83.193293 
C 225.055799 82.980788 225.1752 82.692528 225.1752 82.392 
C 225.1752 82.091472 225.055799 81.803212 224.843293 81.590707 
C 224.630788 81.378201 224.342528 81.2588 224.042 81.2588 
C 223.741472 81.2588 223.453212 81.378201 223.240707 81.590707 
C 223.028201 81.803212 222.9088 82.091472 222.9088 82.392 
C 222.9088 82.692528 223.028201 82.980788 223.240707 83.193293 
C 223.453212 83.405799 223.741472 83.5252 224.042 83.5252 
z
" clip-path="url(#p848c8138fe)" style="stroke: #000000; stroke-linejoin: miter"/>
   </g>
   <g id="patch_30">
    <path d="M 105.056 25.732 
L 116.388 25.732 
L 116.388 14.4 
L 105.056 14.4 
L 105.056 25.732 
z
" clip-path="url(#p848c8138fe)" style="fill: none; stroke: #000000; stroke-linejoin: miter"/>
   </g>
   <g id="patch_31">
    <path d="M 116.388 25.732 
L 127.72 25.732 
L 127.72 14.4 
L 116.388 14.4 
L 116.388 25.732 
z
" clip-path="url(#p848c8138fe)" style="fill: none; stroke: #000000; stroke-linejoin: miter"/>
   </g>
   <g id="patch_32">
    <path d="M 127.72 127.72 
L 139.052 127.72 
L 139.052 116.388 
L 127.72 116.388 
L 127.72 127.72 
z
" clip-path="url(#p848c8138fe)" style="fill: none; stroke: #000000; stroke-linejoin: miter"/>
   </g>
   <g id="patch_33">
    <path d="M 127.72 116.388 
L 139.052 116.388 
L 139.052 105.056 
L 127.72 105.056 
L 127.72 116.388 
z
" clip-path="url(#p848c8138fe)" style="fill: none; stroke: #000000; stroke-linejoin: miter"/>
   </g>
   <g id="patch_34">
    <path d="M 127.72 25.732 
L 139.052 25.732 
L 139.052 14.4 
L 127.72 14.4 
L 127.72 25.732 
z
" clip-path="url(#p848c8138fe)" style="fill: none; stroke: #000000; stroke-linejoin: miter"/>
   </g>
   <g id="patch_35">
    <path d="M 139.052 25.732 
L 150.384 25.732 
L 150.384 14.4 
L 139.052 14.4 
L 139.052 25.732 
z
" clip-path="url(#p848c8138fe)" style="fill: none; stroke: #000000; stroke-linejoin: miter"/>
   </g>
   <g id="patch_36">
    <path d="M 150.384 25.732 
L 161.716 25.732 
L 161.716 14.4 
L 150.384 14.4 
L 150.384 25.732 
z
" clip-path="url(#p848c8138fe)" style="fill: none; stroke: #000000; stroke-linejoin: miter"/>
   </g>
   <g id="patch_37">
    <path d="M 161.716 25.732 
L 173.048 25.732 
L 173.048 14.4 
L 161.716 14.4 
L 161.716 25.732 
z
" clip-path="url(#p848c8138fe)" style="fill: none; stroke: #000000; stroke-linejoin: miter"/>
   </g>
   <g id="patch_38">
    <path d="M 173.048 25.732 
L 184.38 25.732 
L 184.38 14.4 
L 173.048 14.4 
L 173.048 25.732 
z
" clip-path="url(#p848c8138fe)" style="fill: none; stroke: #000000; stroke-linejoin: miter"/>
   </g>
   <g id="patch_39">
    <path d="M 184.38 127.72 
L 195.712 127.72 
L 195.712 116.388 
L 184.38 116.388 
L 184.38 127.72 
z
" clip-path="url(#p848c8138fe)" style="fill: none; stroke: #000000; stroke-linejoin: miter"/>
   </g>
   <g id="patch_40">
    <path d="M 184.38 116.388 
L 195.712 116.388 
L 195.712 105.056 
L 184.38 105.056 
L 184.38 116.388 
z
" clip-path="url(#p848c8138fe)" style="fill: none; stroke: #000000; stroke-linejoin: miter"/>
   </g>
   <g id="patch_41">
    <path d="M 184.38 105.056 
L 195.712 105.056 
L 195.712 93.724 
L 184.38 93.724 
L 184.38 105.056 
z
" clip-path="url(#p848c8138fe)" style="fill: none; stroke: #000000; stroke-linejoin: miter"/>
   </g>
   <g id="patch_42">
    <path d="M 184.38 93.724 
L 195.712 93.724 
L 195.712 82.392 
L 184.38 82.392 
L 184.38 93.724 
z
" clip-path="url(#p848c8138fe)" style="fill: none; stroke: #000000; stroke-linejoin: miter"/>
   </g>
   <g id="patch_43">
    <path d="M 184.38 59.728 
L 195.712 59.728 
L 195.712 48.396 
L 184.38 48.396 
L 184.38 59.728 
z
" clip-path="url(#p848c8138fe)" style="fill: none; stroke: #000000; stroke-linejoin: miter"/>
   </g>
   <g id="patch_44">
    <path d="M 184.38 48.396 
L 195.712 48.396 
L 195.712 37.064 
L 184.38 37.064 
L 184.38 48.396 
z
" clip-path="url(#p848c8138fe)" style="fill: none; stroke: #000000; stroke-linejoin: miter"/>
   </g>
   <g id="patch_45">
    <path d="M 184.38 37.064 
L 195.712 37.064 
L 195.712 25.732 
L 184.38 25.732 
L 184.38 37.064 
z
" clip-path="url(#p848c8138fe)" style="fill: none; stroke: #000000; stroke-linejoin: miter"/>
   </g>
   <g id="patch_46">
    <path d="M 184.38 25.732 
L 195.712 25.732 
L 195.712 14.4 
L 184.38 14.4 
L 184.38 25.732 
z
" clip-path="url(#p848c8138fe)" style="fill: none; stroke: #000000; stroke-linejoin: miter"/>
   </g>
   <g id="patch_47">
    <path d="M 195.712 184.38 
L 207.044 184.38 
L 207.044 173.048 
L 195.712 173.048 
L 195.712 184.38 
z
" clip-path="url(#p848c8138fe)" style="fill: none; stroke: #000000; stroke-linejoin: miter"/>
   </g>
   <g id="patch_48">
    <path d="M 195.712 173.048 
L 207.044 173.048 
L 207.044 161.716 
L 195.712 161.716 
L 195.712 173.048 
z
" clip-path="url(#p848c8138fe)" style="fill: none; stroke: #000000; stroke-linejoin: miter"/>
   </g>
   <g id="patch_49">
    <path d="M 195.712 116.388 
L 207.044 116.388 
L 207.044 105.056 
L 195.712 105.056 
L 195.712 116.388 
z
" clip-path="url(#p848c8138fe)" style="fill: none; stroke: #000000; stroke-linejoin: miter"/>
   </g>
   <g id="patch_50">
    <path d="M 195.712 105.056 
L 207.044 105.056 
L 207.044 93.724 
L 195.712 93.724 
L 195.712 105.056 
z
" clip-path="url(#p848c8138fe)" style="fill: none; stroke: #000000; stroke-linejoin: miter"/>
   </g>
   <g id="patch_51">
    <path d="M 195.712 93.724 
L 207.044 93.724 
L 207.044 82.392 
L 195.712 82.392 
L 195.712 93.724 
z
" clip-path="url(#p848c8138fe)" style="fill: none; stroke: #000000; stroke-linejoin: miter"/>
   </g>
   <g id="patch_52">
    <path d="M 195.712 59.728 
L 207.044 59.728 
L 207.044 48.396 
L 195.712 48.396 
L 195.712 59.728 
z
" clip-path="url(#p848c8138fe)" style="fill: none; stroke: #000000; stroke-linejoin: miter"/>
   </g>
   <g id="patch_53">
    <path d="M 195.712 48.396 
L 207.044 48.396 
L 207.044 37.064 
L 195.712 37.064 
L 195.712 48.396 
z
" clip-path="url(#p848c8138fe)" style="fill: none; stroke: #000000; stroke-linejoin: miter"/>
   </g>
   <g id="patch_54">
    <path d="M 195.712 37.064 
L 207.044 37.064 
L 207.044 25.732 
L 195.712 25.732 
L 195.712 37.064 
z
" clip-path="url(#p848c8138fe)" style="fill: none; stroke: #000000; stroke-linejoin: miter"/>
   </g>
   <g id="patch_55">
    <path d="M 195.712 25.732 
L 207.044 25.732 
L 207.044 14.4 
L 195.712 14.4 
L 195.712 25.732 
z
" clip-path="url(#p848c8138fe)" style="fill: none; stroke: #000000; stroke-linejoin: miter"/>
   </g>
   <g id="patch_56">
    <path d="M 207.044 48.396 
L 218.376 48.396 
L 218.376 37.064 
L 207.044 37.064 
L 207.044 48.396 
z
" clip-path="url(#p848c8138fe)" style="fill: none; stroke: #000000; stroke-linejoin: miter"/>
   </g>
   <g id="patch_57">
    <path d="M 207.044 37.064 
L 218.376 37.064 
L 218.376 25.732 
L 207.044 25.732 
L 207.044 37.064 
z
" clip-path="url(#p848c8138fe)" style="fill: none; stroke: #000000; stroke-linejoin: miter"/>
   </g>
   <g id="patch_58">
    <path d="M 207.044 25.732 
L 218.376 25.732 
L 218.376 14.4 
L 207.044 14.4 
L 207.044 25.732 
z
" clip-path="url(#p848c8138fe)" style="fill: none; stroke: #000000; stroke-linejoin: miter"/>
   </g>
   <g id="patch_59">
    <path d="M 218.376 48.396 
L 229.708 48.396 
L 229.708 37.064 
L 218.376 37.064 
L 218.376 48.396 
z
" clip-path="url(#p848c8138fe)" style="fill: none; stroke: #000000; stroke-linejoin: miter"/>
   </g>
   <g id="patch_60">
    <path d="M 218.376 37.064 
L 229.708 37.064 
L 229.708 25.732 
L 218.376 25.732 
L 218.376 37.064 
z
" clip-path="url(#p848c8138fe)" style="fill: none; stroke: #000000; stroke-linejoin: miter"/>
   </g>
   <g id="patch_61">
    <path d="M 218.376 25.732 
L 229.708 25.732 
L 229.708 14.4 
L 218.376 14.4 
L 218.376 25.732 
z
" clip-path="url(#p848c8138fe)" style="fill: none; stroke: #000000; stroke-linejoin: miter"/>
   </g>
   <g id="patch_62">
    <path d="M 229.708 48.396 
L 241.04 48.396 
L 241.04 37.064 
L 229.708 37.064 
L 229.708 48.396 
z
" clip-path="url(#p848c8138fe)" style="fill: none; stroke: #000000; stroke-linejoin: miter"/>
   </g>
   <g id="patch_63">
    <path d="M 229.708 37.064 
L 241.04 37.064 
L 241.04 25.732 
L 229.708 25.732 
L 229.708 37.064 
z
" clip-path="url(#p848c8138fe)" style="fill: none; stroke: #000000; stroke-linejoin: miter"/>
   </g>
   <g id="patch_64">
    <path d="M 229.708 25.732 
L 241.04 25.732 
L 241.04 14.4 
L 229.708 14.4 
L 229.708 25.732 
z
" clip-path="url(#p848c8138fe)" style="fill: none; stroke: #000000; stroke-linejoin: miter"/>
   </g>
   <g id="line2d_1">
    <path d="M 14.4 241.04 
L 48.396 241.04 
" clip-path="url(#p848c8138fe)" style="fill: none; stroke: #000000; stroke-width: 1.5; stroke-linecap: square"/>
   </g>
   <g id="line2d_2">
    <path d="M 14.4 241.04 
L 14.4 161.716 
" clip-path="url(#p848c8138fe)" style="fill: none; stroke: #000000; stroke-width: 1.5; stroke-linecap: square"/>
   </g>
   <g id="line2d_3">
    <path d="M 48.396 241.04 
L 48.396 161.716 
" clip-path="url(#p848c8138fe)" style="fill: none; stroke: #000000; stroke-width: 1.5; stroke-linecap: square"/>
   </g>
   <g id="line2d_4">
    <path d="M 14.4 161.716 
L 48.396 161.716 
" clip-path="url(#p848c8138fe)" style="fill: none; stroke: #000000; stroke-width: 1.5; stroke-linecap: square"/>
   </g>
   <g id="line2d_5">
    <path d="M 48.396 241.04 
L 127.72 241.04 
" clip-path="url(#p848c8138fe)" style="fill: none; stroke: #000000; stroke-width: 1.5; stroke-linecap: square"/>
   </g>
   <g id="line2d_6">
    <path d="M 48.396 241.04 
L 48.396 105.056 
" clip-path="url(#p848c8138fe)" style="fill: none; stroke: #000000; stroke-width: 1.5; stroke-linecap: square"/>
   </g>
   <g id="line2d_7">
    <path d="M 127.72 241.04 
L 127.72 105.056 
" clip-path="url(#p848c8138fe)" style="fill: none; stroke: #000000; stroke-width: 1.5; stroke-linecap: square"/>
   </g>
   <g id="line2d_8">
    <path d="M 48.396 105.056 
L 127.72 105.056 
" clip-path="url(#p848c8138fe)" style="fill: none; stroke: #000000; stroke-width: 1.5; stroke-linecap: square"/>
   </g>
   <g id="line2d_9">
    <path d="M 127.72 241.04 
L 207.044 241.04 
" clip-path="url(#p848c8138fe)" style="fill: none; stroke: #000000; stroke-width: 1.5; stroke-linecap: square"/>
   </g>
   <g id="line2d_10">
    <path d="M 127.72 241.04 
L 127.72 184.38 
" clip-path="url(#p848c8138fe)" style="fill: none; stroke: #000000; stroke-width: 1.5; stroke-linecap: square"/>
   </g>
   <g id="line2d_11">
    <path d="M 207.044 241.04 
L 207.044 184.38 
" clip-path="url(#p848c8138fe)" style="fill: none; stroke: #000000; stroke-width: 1.5; stroke-linecap: square"/>
   </g>
   <g id="line2d_12">
    <path d="M 127.72 184.38 
L 207.044 184.38 
" clip-path="url(#p848c8138fe)" style="fill: none; stroke: #000000; stroke-width: 1.5; stroke-linecap: square"/>
   </g>
   <g id="line2d_13">
    <path d="M 127.72 184.38 
L 195.712 184.38 
" clip-path="url(#p848c8138fe)" style="fill: none; stroke: #000000; stroke-width: 1.5; stroke-linecap: square"/>
   </g>
   <g id="line2d_14">
    <path d="M 127.72 184.38 
L 127.72 150.384 
" clip-path="url(#p848c8138fe)" style="fill: none; stroke: #000000; stroke-width: 1.5; stroke-linecap: square"/>
   </g>
   <g id="line2d_15">
    <path d="M 195.712 184.38 
L 195.712 150.384 
" clip-path="url(#p848c8138fe)" style="fill: none; stroke: #000000; stroke-width: 1.5; stroke-linecap: square"/>
   </g>
   <g id="line2d_16">
    <path d="M 127.72 150.384 
L 195.712 150.384 
" clip-path="url(#p848c8138fe)" style="fill: none; stroke: #000000; stroke-width: 1.5; stroke-linecap: square"/>
   </g>
   <g id="line2d_17">
    <path d="M 207.044 241.04 
L 241.04 241.04 
" clip-path="url(#p848c8138fe)" style="fill: none; stroke: #000000; stroke-width: 1.5; stroke-linecap: square"/>
   </g>
   <g id="line2d_18">
    <path d="M 207.044 241.04 
L 207.044 161.716 
" clip-path="url(#p848c8138fe)" style="fill: none; stroke: #000000; stroke-width: 1.5; stroke-linecap: square"/>
   </g>
   <g id="line2d_19">
    <path d="M 241.04 241.04 
L 241.04 161.716 
" clip-path="url(#p848c8138fe)" style="fill: none; stroke: #000000; stroke-width: 1.5; stroke-linecap: square"/>
   </g>
   <g id="line2d_20">
    <path d="M 207.044 161.716 
L 241.04 161.716 
" clip-path="url(#p848c8138fe)" style="fill: none; stroke: #000000; stroke-width: 1.5; stroke-linecap: square"/>
   </g>
   <g id="line2d_21">
    <path d="M 195.712 161.716 
L 241.04 161.716 
" clip-path="url(#p848c8138fe)" style="fill: none; stroke: #000000; stroke-width: 1.5; stroke-linecap: square"/>
   </g>
   <g id="line2d_22">
    <path d="M 195.712 161.716 
L 195.712 116.388 
" clip-path="url(#p848c8138fe)" style="fill: none; stroke: #000000; stroke-width: 1.5; stroke-linecap: square"/>
   </g>
   <g id="line2d_23">
    <path d="M 241.04 161.716 
L 241.04 116.388 
" clip-path="url(#p848c8138fe)" style="fill: none; stroke: #000000; stroke-width: 1.5; stroke-linecap: square"/>
   </g>
   <g id="line2d_24">
    <path d="M 195.712 116.388 
L 241.04 116.388 
" clip-path="url(#p848c8138fe)" style="fill: none; stroke: #000000; stroke-width: 1.5; stroke-linecap: square"/>
   </g>
   <g id="line2d_25">
    <path d="M 14.4 105.056 
L 139.052 105.056 
" clip-path="url(#p848c8138fe)" style="fill: none; stroke: #000000; stroke-width: 1.5; stroke-linecap: square"/>
   </g>
   <g id="line2d_26">
    <path d="M 14.4 105.056 
L 14.4 82.392 
" clip-path="url(#p848c8138fe)" style="fill: none; stroke: #000000; stroke-width: 1.5; stroke-linecap: square"/>
   </g>
   <g id="line2d_27">
    <path d="M 139.052 105.056 
L 139.052 82.392 
" clip-path="url(#p848c8138fe)" style="fill: none; stroke: #000000; stroke-width: 1.5; stroke-linecap: square"/>
   </g>
   <g id="line2d_28">
    <path d="M 14.4 82.392 
L 139.052 82.392 
" clip-path="url(#p848c8138fe)" style="fill: none; stroke: #000000; stroke-width: 1.5; stroke-linecap: square"/>
   </g>
   <g id="line2d_29">
    <path d="M 127.72 150.384 
L 195.712 150.384 
" clip-path="url(#p848c8138fe)" style="fill: none; stroke: #000000; stroke-width: 1.5; stroke-linecap: square"/>
   </g>
   <g id="line2d_30">
    <path d="M 127.72 150.384 
L 127.72 127.72 
" clip-path="url(#p848c8138fe)" style="fill: none; stroke: #000000; stroke-width: 1.5; stroke-linecap: square"/>
   </g>
   <g id="line2d_31">
    <path d="M 195.712 150.384 
L 195.712 127.72 
" clip-path="url(#p848c8138fe)" style="fill: none; stroke: #000000; stroke-width: 1.5; stroke-linecap: square"/>
   </g>
   <g id="line2d_32">
    <path d="M 127.72 127.72 
L 195.712 127.72 
" clip-path="url(#p848c8138fe)" style="fill: none; stroke: #000000; stroke-width: 1.5; stroke-linecap: square"/>
   </g>
   <g id="line2d_33">
    <path d="M 139.052 127.72 
L 184.38 127.72 
" clip-path="url(#p848c8138fe)" style="fill: none; stroke: #000000; stroke-width: 1.5; stroke-linecap: square"/>
   </g>
   <g id="line2d_34">
    <path d="M 139.052 127.72 
L 139.052 82.392 
" clip-path="url(#p848c8138fe)" style="fill: none; stroke: #000000; stroke-width: 1.5; stroke-linecap: square"/>
   </g>
   <g id="line2d_35">
    <path d="M 184.38 127.72 
L 184.38 82.392 
" clip-path="url(#p848c8138fe)" style="fill: none; stroke: #000000; stroke-width: 1.5; stroke-linecap: square"/>
   </g>
   <g id="line2d_36">
    <path d="M 139.052 82.392 
L 184.38 82.392 
" clip-path="url(#p848c8138fe)" style="fill: none; stroke: #000000; stroke-width: 1.5; stroke-linecap: square"/>
   </g>
   <g id="line2d_37">
    <path d="M 14.4 82.392 
L 105.056 82.392 
" clip-path="url(#p848c8138fe)" style="fill: none; stroke: #000000; stroke-width: 1.5; stroke-linecap: square"/>
   </g>
   <g id="line2d_38">
    <path d="M 14.4 82.392 
L 14.4 14.4 
" clip-path="url(#p848c8138fe)" style="fill: none; stroke: #000000; stroke-width: 1.5; stroke-linecap: square"/>
   </g>
   <g id="line2d_39">
    <path d="M 105.056 82.392 
L 105.056 14.4 
" clip-path="url(#p848c8138fe)" style="fill: none; stroke: #000000; stroke-width: 1.5; stroke-linecap: square"/>
   </g>
   <g id="line2d_40">
    <path d="M 14.4 14.4 
L 105.056 14.4 
" clip-path="url(#p848c8138fe)" style="fill: none; stroke: #000000; stroke-width: 1.5; stroke-linecap: square"/>
   </g>
   <g id="line2d_41">
    <path d="M 14.4 161.716 
L 48.396 161.716 
" clip-path="url(#p848c8138fe)" style="fill: none; stroke: #000000; stroke-width: 1.5; stroke-linecap: square"/>
   </g>
   <g id="line2d_42">
    <path d="M 14.4 161.716 
L 14.4 105.056 
" clip-path="url(#p848c8138fe)" style="fill: none; stroke: #000000; stroke-width: 1.5; stroke-linecap: square"/>
   </g>
   <g id="line2d_43">
    <path d="M 48.396 161.716 
L 48.396 105.056 
" clip-path="url(#p848c8138fe)" style="fill: none; stroke: #000000; stroke-width: 1.5; stroke-linecap: square"/>
   </g>
   <g id="line2d_44">
    <path d="M 14.4 105.056 
L 48.396 105.056 
" clip-path="url(#p848c8138fe)" style="fill: none; stroke: #000000; stroke-width: 1.5; stroke-linecap: square"/>
   </g>
   <g id="line2d_45">
    <path d="M 105.056 82.392 
L 207.044 82.392 
" clip-path="url(#p848c8138fe)" style="fill: none; stroke: #000000; stroke-width: 1.5; stroke-linecap: square"/>
   </g>
   <g id="line2d_46">
    <path d="M 105.056 82.392 
L 105.056 59.728 
" clip-path="url(#p848c8138fe)" style="fill: none; stroke: #000000; stroke-width: 1.5; stroke-linecap: square"/>
   </g>
   <g id="line2d_47">
    <path d="M 207.044 82.392 
L 207.044 59.728 
" clip-path="url(#p848c8138fe)" style="fill: none; stroke: #000000; stroke-width: 1.5; stroke-linecap: square"/>
   </g>
   <g id="line2d_48">
    <path d="M 105.056 59.728 
L 207.044 59.728 
" clip-path="url(#p848c8138fe)" style="fill: none; stroke: #000000; stroke-width: 1.5; stroke-linecap: square"/>
   </g>
   <g id="line2d_49">
    <path d="M 105.056 59.728 
L 184.38 59.728 
" clip-path="url(#p848c8138fe)" style="fill: none; stroke: #000000; stroke-width: 1.5; stroke-linecap: square"/>
   </g>
   <g id="line2d_50">
    <path d="M 105.056 59.728 
L 105.056 25.732 
" clip-path="url(#p848c8138fe)" style="fill: none; stroke: #000000; stroke-width: 1.5; stroke-linecap: square"/>
   </g>
   <g id="line2d_51">
    <path d="M 184.38 59.728 
L 184.38 25.732 
" clip-path="url(#p848c8138fe)" style="fill: none; stroke: #000000; stroke-width: 1.5; stroke-linecap: square"/>
   </g>
   <g id="line2d_52">
    <path d="M 105.056 25.732 
L 184.38 25.732 
" clip-path="url(#p848c8138fe)" style="fill: none; stroke: #000000; stroke-width: 1.5; stroke-linecap: square"/>
   </g>
   <g id="line2d_53">
    <path d="M 207.044 116.388 
L 241.04 116.388 
" clip-path="url(#p848c8138fe)" style="fill: none; stroke: #000000; stroke-width: 1.5; stroke-linecap: square"/>
   </g>
   <g id="line2d_54">
    <path d="M 207.044 116.388 
L 207.044 48.396 
" clip-path="url(#p848c8138fe)" style="fill: none; stroke: #000000; stroke-width: 1.5; stroke-linecap: square"/>
   </g>
   <g id="line2d_55">
    <path d="M 241.04 116.388 
L 241.04 48.396 
" clip-path="url(#p848c8138fe)" style="fill: none; stroke: #000000; stroke-width: 1.5; stroke-linecap: square"/>
   </g>
   <g id="line2d_56">
    <path d="M 207.044 48.396 
L 241.04 48.396 
" clip-path="url(#p848c8138fe)" style="fill: none; stroke: #000000; stroke-width: 1.5; stroke-linecap: square"/>
   </g>
   <g id="line2d_57">
    <path d="M 105.056 25.732 
L 116.388 14.4 
" clip-path="url(#p848c8138fe)" style="fill: none; stroke: #000000; stroke-linecap: square"/>
   </g>
   <g id="line2d_58">
    <path d="M 116.388 25.732 
L 105.056 14.4 
" clip-path="url(#p848c8138fe)" style="fill: none; stroke: #000000; stroke-linecap: square"/>
   </g>
   <g id="line2d_59">
    <path d="M 116.388 25.732 
L 127.72 14.4 
" clip-path="url(#p848c8138fe)" style="fill: none; stroke: #000000; stroke-linecap: square"/>
   </g>
   <g id="line2d_60">
    <path d="M 127.72 25.732 
L 116.388 14.4 
" clip-path="url(#p848c8138fe)" style="fill: none; stroke: #000000; stroke-linecap: square"/>
   </g>
   <g id="line2d_61">
    <path d="M 127.72 127.72 
L 139.052 116.388 
" clip-path="url(#p848c8138fe)" style="fill: none; stroke: #000000; stroke-linecap: square"/>
   </g>
   <g id="line2d_62">
    <path d="M 139.052 127.72 
L 127.72 116.388 
" clip-path="url(#p848c8138fe)" style="fill: none; stroke: #000000; stroke-linecap: square"/>
   </g>
   <g id="line2d_63">
    <path d="M 127.72 116.388 
L 139.052 105.056 
" clip-path="url(#p848c8138fe)" style="fill: none; stroke: #000000; stroke-linecap: square"/>
   </g>
   <g id="line2d_64">
    <path d="M 139.052 116.388 
L 127.72 105.056 
" clip-path="url(#p848c8138fe)" style="fill: none; stroke: #000000; stroke-linecap: square"/>
   </g>
   <g id="line2d_65">
    <path d="M 127.72 25.732 
L 139.052 14.4 
" clip-path="url(#p848c8138fe)" style="fill: none; stroke: #000000; stroke-linecap: square"/>
   </g>
   <g id="line2d_66">
    <path d="M 139.052 25.732 
L 127.72 14.4 
" clip-path="url(#p848c8138fe)" style="fill: none; stroke: #000000; stroke-linecap: square"/>
   </g>
   <g id="line2d_67">
    <path d="M 139.052 25.732 
L 150.384 14.4 
" clip-path="url(#p848c8138fe)" style="fill: none; stroke: #000000; stroke-linecap: square"/>
   </g>
   <g id="line2d_68">
    <path d="M 150.384 25.732 
L 139.052 14.4 
" clip-path="url(#p848c8138fe)" style="fill: none; stroke: #000000; stroke-linecap: square"/>
   </g>
   <g id="line2d_69">
    <path d="M 150.384 25.732 
L 161.716 14.4 
" clip-path="url(#p848c8138fe)" style="fill: none; stroke: #000000; stroke-linecap: square"/>
   </g>
   <g id="line2d_70">
    <path d="M 161.716 25.732 
L 150.384 14.4 
" clip-path="url(#p848c8138fe)" style="fill: none; stroke: #000000; stroke-linecap: square"/>
   </g>
   <g id="line2d_71">
    <path d="M 161.716 25.732 
L 173.048 14.4 
" clip-path="url(#p848c8138fe)" style="fill: none; stroke: #000000; stroke-linecap: square"/>
   </g>
   <g id="line2d_72">
    <path d="M 173.048 25.732 
L 161.716 14.4 
" clip-path="url(#p848c8138fe)" style="fill: none; stroke: #000000; stroke-linecap: square"/>
   </g>
   <g id="line2d_73">
    <path d="M 173.048 25.732 
L 184.38 14.4 
" clip-path="url(#p848c8138fe)" style="fill: none; stroke: #000000; stroke-linecap: square"/>
   </g>
   <g id="line2d_74">
    <path d="M 184.38 25.732 
L 173.048 14.4 
" clip-path="url(#p848c8138fe)" style="fill: none; stroke: #000000; stroke-linecap: square"/>
   </g>
   <g id="line2d_75">
    <path d="M 184.38 127.72 
L 195.712 116.388 
" clip-path="url(#p848c8138fe)" style="fill: none; stroke: #000000; stroke-linecap: square"/>
   </g>
   <g id="line2d_76">
    <path d="M 195.712 127.72 
L 184.38 116.388 
" clip-path="url(#p848c8138fe)" style="fill: none; stroke: #000000; stroke-linecap: square"/>
   </g>
   <g id="line2d_77">
    <path d="M 184.38 116.388 
L 195.712 105.056 
" clip-path="url(#p848c8138fe)" style="fill: none; stroke: #000000; stroke-linecap: square"/>
   </g>
   <g id="line2d_78">
    <path d="M 195.712 116.388 
L 184.38 105.056 
" clip-path="url(#p848c8138fe)" style="fill: none; stroke: #000000; stroke-linecap: square"/>
   </g>
   <g id="line2d_79">
    <path d="M 184.38 105.056 
L 195.712 93.724 
" clip-path="url(#p848c8138fe)" style="fill: none; stroke: #000000; stroke-linecap: square"/>
   </g>
   <g id="line2d_80">
    <path d="M 195.712 105.056 
L 184.38 93.724 
" clip-path="url(#p848c8138fe)" style="fill: none; stroke: #000000; stroke-linecap: square"/>
   </g>
   <g id="line2d_81">
    <path d="M 184.38 93.724 
L 195.712 82.392 
" clip-path="url(#p848c8138fe)" style="fill: none; stroke: #000000; stroke-linecap: square"/>
   </g>
   <g id="line2d_82">
    <path d="M 195.712 93.724 
L 184.38 82.392 
" clip-path="url(#p848c8138fe)" style="fill: none; stroke: #000000; stroke-linecap: square"/>
   </g>
   <g id="line2d_83">
    <path d="M 184.38 59.728 
L 195.712 48.396 
" clip-path="url(#p848c8138fe)" style="fill: none; stroke: #000000; stroke-linecap: square"/>
   </g>
   <g id="line2d_84">
    <path d="M 195.712 59.728 
L 184.38 48.396 
" clip-path="url(#p848c8138fe)" style="fill: none; stroke: #000000; stroke-linecap: square"/>
   </g>
   <g id="line2d_85">
    <path d="M 184.38 48.396 
L 195.712 37.064 
" clip-path="url(#p848c8138fe)" style="fill: none; stroke: #000000; stroke-linecap: square"/>
   </g>
   <g id="line2d_86">
    <path d="M 195.712 48.396 
L 184.38 37.064 
" clip-path="url(#p848c8138fe)" style="fill: none; stroke: #000000; stroke-linecap: square"/>
   </g>
   <g id="line2d_87">
    <path d="M 184.38 37.064 
L 195.712 25.732 
" clip-path="url(#p848c8138fe)" style="fill: none; stroke: #000000; stroke-linecap: square"/>
   </g>
   <g id="line2d_88">
    <path d="M 195.712 37.064 
L 184.38 25.732 
" clip-path="url(#p848c8138fe)" style="fill: none; stroke: #000000; stroke-linecap: square"/>
   </g>
   <g id="line2d_89">
    <path d="M 184.38 25.732 
L 195.712 14.4 
" clip-path="url(#p848c8138fe)" style="fill: none; stroke: #000000; stroke-linecap: square"/>
   </g>
   <g id="line2d_90">
    <path d="M 195.712 25.732 
L 184.38 14.4 
" clip-path="url(#p848c8138fe)" style="fill: none; stroke: #000000; stroke-linecap: square"/>
   </g>
   <g id="line2d_91">
    <path d="M 195.712 184.38 
L 207.044 173.048 
" clip-path="url(#p848c8138fe)" style="fill: none; stroke: #000000; stroke-linecap: square"/>
   </g>
   <g id="line2d_92">
    <path d="M 207.044 184.38 
L 195.712 173.048 
" clip-path="url(#p848c8138fe)" style="fill: none; stroke: #000000; stroke-linecap: square"/>
   </g>
   <g id="line2d_93">
    <path d="M 195.712 173.048 
L 207.044 161.716 
" clip-path="url(#p848c8138fe)" style="fill: none; stroke: #000000; stroke-linecap: square"/>
   </g>
   <g id="line2d_94">
    <path d="M 207.044 173.048 
L 195.712 161.716 
" clip-path="url(#p848c8138fe)" style="fill: none; stroke: #000000; stroke-linecap: square"/>
   </g>
   <g id="line2d_95">
    <path d="M 195.712 116.388 
L 207.044 105.056 
" clip-path="url(#p848c8138fe)" style="fill: none; stroke: #000000; stroke-linecap: square"/>
   </g>
   <g id="line2d_96">
    <path d="M 207.044 116.388 
L 195.712 105.056 
" clip-path="url(#p848c8138fe)" style="fill: none; stroke: #000000; stroke-linecap: square"/>
   </g>
   <g id="line2d_97">
    <path d="M 195.712 105.056 
L 207.044 93.724 
" clip-path="url(#p848c8138fe)" style="fill: none; stroke: #000000; stroke-linecap: square"/>
   </g>
   <g id="line2d_98">
    <path d="M 207.044 105.056 
L 195.712 93.724 
" clip-path="url(#p848c8138fe)" style="fill: none; stroke: #000000; stroke-linecap: square"/>
   </g>
   <g id="line2d_99">
    <path d="M 195.712 93.724 
L 207.044 82.392 
" clip-path="url(#p848c8138fe)" style="fill: none; stroke: #000000; stroke-linecap: square"/>
   </g>
   <g id="line2d_100">
    <path d="M 207.044 93.724 
L 195.712 82.392 
" clip-path="url(#p848c8138fe)" style="fill: none; stroke: #000000; stroke-linecap: square"/>
   </g>
   <g id="line2d_101">
    <path d="M 195.712 59.728 
L 207.044 48.396 
" clip-path="url(#p848c8138fe)" style="fill: none; stroke: #000000; stroke-linecap: square"/>
   </g>
   <g id="line2d_102">
    <path d="M 207.044 59.728 
L 195.712 48.396 
" clip-path="url(#p848c8138fe)" style="fill: none; stroke: #000000; stroke-linecap: square"/>
   </g>
   <g id="line2d_103">
    <path d="M 195.712 48.396 
L 207.044 37.064 
" clip-path="url(#p848c8138fe)" style="fill: none; stroke: #000000; stroke-linecap: square"/>
   </g>
   <g id="line2d_104">
    <path d="M 207.044 48.396 
L 195.712 37.064 
" clip-path="url(#p848c8138fe)" style="fill: none; stroke: #000000; stroke-linecap: square"/>
   </g>
   <g id="line2d_105">
    <path d="M 195.712 37.064 
L 207.044 25.732 
" clip-path="url(#p848c8138fe)" style="fill: none; stroke: #000000; stroke-linecap: square"/>
   </g>
   <g id="line2d_106">
    <path d="M 207.044 37.064 
L 195.712 25.732 
" clip-path="url(#p848c8138fe)" style="fill: none; stroke: #000000; stroke-linecap: square"/>
   </g>
   <g id="line2d_107">
    <path d="M 195.712 25.732 
L 207.044 14.4 
" clip-path="url(#p848c8138fe)" style="fill: none; stroke: #000000; stroke-linecap: square"/>
   </g>
   <g id="line2d_108">
    <path d="M 207.044 25.732 
L 195.712 14.4 
" clip-path="url(#p848c8138fe)" style="fill: none; stroke: #000000; stroke-linecap: square"/>
   </g>
   <g id="line2d_109">
    <path d="M 207.044 48.396 
L 218.376 37.064 
" clip-path="url(#p848c8138fe)" style="fill: none; stroke: #000000; stroke-linecap: square"/>
   </g>
   <g id="line2d_110">
    <path d="M 218.376 48.396 
L 207.044 37.064 
" clip-path="url(#p848c8138fe)" style="fill: none; stroke: #000000; stroke-linecap: square"/>
   </g>
   <g id="line2d_111">
    <path d="M 207.044 37.064 
L 218.376 25.732 
" clip-path="url(#p848c8138fe)" style="fill: none; stroke: #000000; stroke-linecap: square"/>
   </g>
   <g id="line2d_112">
    <path d="M 218.376 37.064 
L 207.044 25.732 
" clip-path="url(#p848c8138fe)" style="fill: none; stroke: #000000; stroke-linecap: square"/>
   </g>
   <g id="line2d_113">
    <path d="M 207.044 25.732 
L 218.376 14.4 
" clip-path="url(#p848c8138fe)" style="fill: none; stroke: #000000; stroke-linecap: square"/>
   </g>
   <g id="line2d_114">
    <path d="M 218.376 25.732 
L 207.044 14.4 
" clip-path="url(#p848c8138fe)" style="fill: none; stroke: #000000; stroke-linecap: square"/>
   </g>
   <g id="line2d_115">
    <path d="M 218.376 48.396 
L 229.708 37.064 
" clip-path="url(#p848c8138fe)" style="fill: none; stroke: #000000; stroke-linecap: square"/>
   </g>
   <g id="line2d_116">
    <path d="M 229.708 48.396 
L 218.376 37.064 
" clip-path="url(#p848c8138fe)" style="fill: none; stroke: #000000; stroke-linecap: square"/>
   </g>
   <g id="line2d_117">
    <path d="M 218.376 37.064 
L 229.708 25.732 
" clip-path="url(#p848c8138fe)" style="fill: none; stroke: #000000; stroke-linecap: square"/>
   </g>
   <g id="line2d_118">
    <path d="M 229.708 37.064 
L 218.376 25.732 
" clip-path="url(#p848c8138fe)" style="fill: none; stroke: #000000; stroke-linecap: square"/>
   </g>
   <g id="line2d_119">
    <path d="M 218.376 25.732 
L 229.708 14.4 
" clip-path="url(#p848c8138fe)" style="fill: none; stroke: #000000; stroke-linecap: square"/>
   </g>
   <g id="line2d_120">
    <path d="M 229.708 25.732 
L 218.376 14.4 
" clip-path="url(#p848c8138fe)" style="fill: none; stroke: #000000; stroke-linecap: square"/>
   </g>
   <g id="line2d_121">
    <path d="M 229.708 48.396 
L 241.04 37.064 
" clip-path="url(#p848c8138fe)" style="fill: none; stroke: #000000; stroke-linecap: square"/>
   </g>
   <g id="line2d_122">
    <path d="M 241.04 48.396 
L 229.708 37.064 
" clip-path="url(#p848c8138fe)" style="fill: none; stroke: #000000; stroke-linecap: square"/>
   </g>
   <g id="line2d_123">
    <path d="M 229.708 37.064 
L 241.04 25.732 
" clip-path="url(#p848c8138fe)" style="fill: none; stroke: #000000; stroke-linecap: square"/>
   </g>
   <g id="line2d_124">
    <path d="M 241.04 37.064 
L 229.708 25.732 
" clip-path="url(#p848c8138fe)" style="fill: none; stroke: #000000; stroke-linecap: square"/>
   </g>
   <g id="line2d_125">
    <path d="M 229.708 25.732 
L 241.04 14.4 
" clip-path="url(#p848c8138fe)" style="fill: none; stroke: #000000; stroke-linecap: square"/>
   </g>
   <g id="line2d_126">
    <path d="M 241.04 25.732 
L 229.708 14.4 
" clip-path="url(#p848c8138fe)" style="fill: none; stroke: #000000; stroke-linecap: square"/>
   </g>
  </g>
 </g>
 <defs>
  <clipPath id="p848c8138fe">
   <rect x="14.4" y="14.4" width="226.64" height="226.64"/>
  </clipPath>
 </defs>
</svg>
